<?xml version="1.0" encoding="UTF-8"?><svg id="a" xmlns="http://www.w3.org/2000/svg" xmlns:xlink="http://www.w3.org/1999/xlink" viewBox="0 0 525.83 337.32"><defs><style>.cv{fill:url(#be);}.cw{fill:url(#bu);}.cx,.cy,.d`,.da,.db,.dc,.dd,.de,.df,.dg,.dh,.di,.dj,.dk,.dl,.dm,.dn,.do,.dp,.dq,.dr,.ds,.dt{fill:#fff;}.cx,.du,.d`,.dv,.da,.db,.dc,.dd,.de,.df,.dw,.dg,.dh,.di,.dj,.dx,.dk,.dy,.dl,.dm,.dn,.do,.dp,.dq,.ds,.e`,.dt{stroke-miterlimit:10;}.cx,.du,.d`,.dv,.da,.db,.dc,.dd,.de,.df,.dw,.dg,.dh,.di,.dj,.dk,.dl,.dm,.dn,.do,.dp,.dq,.ds,.dt{stroke:#fff;}.cx,.d`,.da,.db,.dc,.dd,.df,.dg,.dh,.di,.dj,.dk,.dy,.dl,.dm,.dn,.do,.dp,.dq,.ds,.dt{font-family:GOST-Common, GOST Common;}.cx,.d`,.da,.db,.dc,.dd,.df,.dh,.di,.dj,.dl,.dm,.do,.dp{stroke-width:.25px;}.ea{fill:url(#ca);}.eb{fill:url(#bk);}.ec{fill:#4c4c4c;}.du,.dv,.dw{fill:none;}.ed{fill:url(#bl);}.ee{fill:url(#cm);}.ef{fill:url(#bp);}.d`{font-size:7.52px;}.dv,.ds{stroke-width:.75px;}.da{font-size:6.65px;}.eg{fill:url(#ck);}.db{font-size:5.22px;}.dc{font-size:7.66px;}.eh{fill:url(#bh);}.dd,.ei,.ej,.ds{font-size:12.46px;}.ek{fill:url(#bm);}.el{font-size:8.13px;}.de,.dw{stroke-width:2px;}.df{font-size:4.3px;}.em{fill:url(#bj);}.en{fill:url(#bd);}.eo{fill:url(#ce);}.ep{fill:url(#bg);}.eq{fill:url(#bi);}.er{fill:#e7d29a;}.es{fill:url(#bo);}.et{fill:#969696;}.eu{fill:url(#bb);}.ev,.dg,.dk,.dq{opacity:.75;}.dg{font-size:6.87px;}.dg,.dk,.dy,.dn,.dq,.dt{stroke-width:.5px;}.ew{fill:url(#cb);}.ex{fill:url(#cg);}.ey{fill:url(#bf);}.f`{fill:#2b2b2b;}.fa{fill:url(#c`);}.fb{fill:url(#cf);}.ei{letter-spacing:0em;}.fc{font-size:2.32px;}.fd{font-size:6.68px;}.dh{font-size:18.19px;}.fe{fill:url(#bc);}.di{font-size:5.07px;}.dj{font-size:8.05px;}.ff{fill:url(#bv);}.dx{fill:#181818;stroke:#ceccca;}.fg{fill:url(#by);}.dk{font-size:6.79px;}.fh{fill:url(#bw);}.dy{font-size:15.68px;stroke:#9b9b9b;}.dy,.fi{fill:#9b9b9b;}.dl{font-size:9.35px;}.fj{fill:#967953;}.dm{font-size:10.14px;}.fk{fill:url(#bx);}.dn{font-size:33.09px;}.fl{fill:url(#bn);}.do{font-size:5.07px;}.fm{fill:url(#cj);}.dp{font-size:6.49px;}.fn{fill:url(#cc);}.dq{font-size:7.33px;}.dr,.dt{opacity:.85;}.fo{fill:url(#cl);}.fp{fill:#b5b5b5;}.fq{fill:url(#bt);}.fr{fill:#cecac4;}.e`{fill:#c1c1c1;stroke:#c1c1c1;}.fs{fill:url(#bs);}.ft{fill:url(#cd);}.fu{fill:#e0cfa4;}.dt{font-size:16.87px;}</style><linearGradient id="bb" x1="165.38" y1="64.22" x2="178.17" y2="64.22" gradientTransform="matrix(1, 0, 0, 1, 0, 0)" gradientUnits="userSpaceOnUse"><stop offset="0" stop-color="#e5e2df"/><stop offset="0" stop-color="#ded9d6"/><stop offset=".06" stop-color="#cfcac8"/><stop offset=".18" stop-color="#a8a4a6"/><stop offset=".26" stop-color="#8b878d"/><stop offset=".52" stop-color="#f3f4f4"/><stop offset=".58" stop-color="#e4e5e5"/><stop offset=".7" stop-color="#bfbec0"/><stop offset=".86" stop-color="#847f84"/><stop offset=".88" stop-color="#807b80"/><stop offset="1" stop-color="#d1d3d4"/><stop offset="1" stop-color="#a7a9ac"/></linearGradient><linearGradient id="bc" x1="180.93" x2="193.72" xlink:href="#bb"/><linearGradient id="bd" x1="196.99" x2="209.78" xlink:href="#bb"/><linearGradient id="be" x1="212.89" x2="225.68" xlink:href="#bb"/><linearGradient id="bf" x1="228.73" x2="241.52" xlink:href="#bb"/><linearGradient id="bg" x1="244.28" x2="257.07" xlink:href="#bb"/><linearGradient id="bh" x1="260.34" x2="273.13" xlink:href="#bb"/><linearGradient id="bi" x1="276.24" x2="289.03" xlink:href="#bb"/><linearGradient id="bj" x1="292.57" x2="305.36" xlink:href="#bb"/><linearGradient id="bk" x1="308.11" x2="320.9" xlink:href="#bb"/><linearGradient id="bl" x1="324.17" x2="336.96" xlink:href="#bb"/><linearGradient id="bm" x1="340.08" x2="352.87" xlink:href="#bb"/><linearGradient id="bn" x1="355.92" x2="368.71" xlink:href="#bb"/><linearGradient id="bo" x1="371.46" x2="384.25" xlink:href="#bb"/><linearGradient id="bp" x1="387.52" x2="400.31" xlink:href="#bb"/><linearGradient id="bs" x1="164.37" y1="251.98" x2="177.16" y2="251.98" xlink:href="#bb"/><linearGradient id="bt" x1="179.91" y1="251.98" x2="192.7" y2="251.98" xlink:href="#bb"/><linearGradient id="bu" x1="195.97" y1="251.98" x2="208.76" y2="251.98" xlink:href="#bb"/><linearGradient id="bv" x1="211.88" y1="251.98" x2="224.67" y2="251.98" xlink:href="#bb"/><linearGradient id="bw" x1="227.72" y1="251.98" x2="240.51" y2="251.98" xlink:href="#bb"/><linearGradient id="bx" x1="243.26" y1="251.98" x2="256.05" y2="251.98" xlink:href="#bb"/><linearGradient id="by" x1="259.32" y1="251.98" x2="272.11" y2="251.98" xlink:href="#bb"/><linearGradient id="c`" x1="275.23" y1="251.98" x2="288.02" y2="251.98" xlink:href="#bb"/><linearGradient id="ca" x1="291.55" y1="251.98" x2="304.34" y2="251.98" xlink:href="#bb"/><linearGradient id="cb" x1="307.09" y1="251.98" x2="319.88" y2="251.98" xlink:href="#bb"/><linearGradient id="cc" x1="323.15" y1="251.98" x2="335.94" y2="251.98" xlink:href="#bb"/><linearGradient id="cd" x1="339.06" y1="251.98" x2="351.85" y2="251.98" xlink:href="#bb"/><linearGradient id="ce" x1="354.9" y1="251.98" x2="367.69" y2="251.98" xlink:href="#bb"/><linearGradient id="cf" x1="370.44" y1="251.98" x2="383.23" y2="251.98" xlink:href="#bb"/><linearGradient id="cg" x1="386.51" y1="251.98" x2="399.3" y2="251.98" xlink:href="#bb"/><linearGradient id="cj" x1="104.81" y1="72.37" x2="132.93" y2="72.37" xlink:href="#bb"/><linearGradient id="ck" x1="430.42" y1="72.28" x2="458.55" y2="72.28" xlink:href="#bb"/><linearGradient id="cl" x1="429.28" y1="241.62" x2="457.41" y2="241.62" xlink:href="#bb"/><linearGradient id="cm" x1="106.17" y1="241.89" x2="134.3" y2="241.89" xlink:href="#bb"/></defs><g id="b"><path class="f`" d="M450.99,54.8H112.78c-5.91,0-10.7,4.79-10.7,10.69V250.17c0,5.91,4.79,10.7,10.7,10.7H450.99c5.91,0,10.69-4.79,10.69-10.7V65.49c0-5.9-4.78-10.69-10.69-10.69Zm-332.12,6.51c6.11,0,11.06,4.95,11.06,11.06s-4.95,11.06-11.06,11.06-11.06-4.95-11.06-11.06,4.95-11.06,11.06-11.06Zm1.37,191.64c-6.11,0-11.07-4.95-11.07-11.06s4.96-11.07,11.07-11.07,11.06,4.96,11.06,11.07-4.95,11.06-11.06,11.06Zm323.11-.27c-6.11,0-11.07-4.95-11.07-11.06s4.96-11.07,11.07-11.07,11.06,4.96,11.06,11.07-4.95,11.06-11.06,11.06Zm1.14-169.34c-6.11,0-11.07-4.95-11.07-11.06s4.96-11.07,11.07-11.07,11.06,4.96,11.06,11.07-4.95,11.06-11.06,11.06Z"/><g id="c"><rect class="dx" x="99.48" y="103.71" width="153.56" height="107.99"/><path class="er" d="M102.4,116.16l-.09,22.7v3.25c-.02,1.63,1.37,2.99,2.99,3l20.83,.16,3.01,.02-3-3v7.66l3-3h-22.75c-1.66,0-2.95,1.38-3,3l-.24,8.09c-.05,1.66,1.42,2.95,3,3l20.03,.64,2.86,.09-3-3-.18,7.43,3-3-19.8,.32-2.82,.05c-1.65,.03-2.96,1.35-3,3l-.19,7.24c-.04,1.61,1.41,3.01,3,3l19.73-.18,2.81-.03-3-3-.26,8.6,3-3-19.27,.07h-2.77c-1.62,.02-3,1.38-3,3.01v7.07c0,1.62,1.37,3,3,3h35.19c1.62,0,3-1.37,3-3v-47.43c0-3.86-6-3.87-6,0v47.43l3-3h-35.19l3,3v-7.07l-3,3,19.27-.07h2.77c1.66-.02,2.95-1.38,3-3.01l.26-8.6c.05-1.61-1.41-3.01-3-3l-19.73,.18-2.81,.03,3,3,.19-7.24-3,3,19.8-.32,2.82-.05c1.65-.03,2.96-1.35,3-3l.18-7.43c.04-1.66-1.41-2.95-3-3l-20.03-.64-2.86-.09,3,3,.24-8.09-3,3h22.75c1.62,0,3-1.37,3-3v-7.66c0-1.63-1.37-2.99-3-3l-20.83-.16-3.01-.02,3,3,.09-22.7v-3.25c.03-3.86-5.97-3.87-5.99,0h0Z"/><circle cx="141.47" cy="141.77" r="1.37"/><path class="fu" d="M149.64,104.12h8.25v10.01c0,.47-.38,.85-.85,.85h-6.56c-.47,0-.85-.38-.85-.85v-10.01h0Z"/><circle cx="153.73" cy="110.6" r="2.98"/><path class="fp" d="M150.7,95.89h6.15c.58,0,1.05,.47,1.05,1.05v7.2h-8.25v-7.2c0-.58,.47-1.05,1.05-1.05Z"/><path class="fu" d="M162.36,104.12h8.25v10.01c0,.47-.38,.85-.85,.85h-6.56c-.47,0-.85-.38-.85-.85v-10.01h0Z"/><circle cx="166.45" cy="110.6" r="2.98"/><path class="fp" d="M163.41,95.89h6.15c.58,0,1.05,.47,1.05,1.05v7.2h-8.25v-7.2c0-.58,.47-1.05,1.05-1.05Z"/><path class="fu" d="M174.55,104.12h8.25v10.01c0,.47-.38,.85-.85,.85h-6.56c-.47,0-.85-.38-.85-.85v-10.01h0Z"/><circle cx="178.64" cy="110.6" r="2.98"/><path class="fp" d="M175.61,95.89h6.15c.58,0,1.05,.47,1.05,1.05v7.2h-8.25v-7.2c0-.58,.47-1.05,1.05-1.05Z"/><path class="fu" d="M187.27,104.12h8.25v10.01c0,.47-.38,.85-.85,.85h-6.56c-.47,0-.85-.38-.85-.85v-10.01h0Z"/><circle cx="191.36" cy="110.6" r="2.98"/><path class="fp" d="M188.33,95.89h6.15c.58,0,1.05,.47,1.05,1.05v7.2h-8.25v-7.2c0-.58,.47-1.05,1.05-1.05Z"/><path class="fu" d="M199.98,104.12h8.25v10.01c0,.47-.38,.85-.85,.85h-6.56c-.47,0-.85-.38-.85-.85v-10.01h0Z"/><circle cx="204.07" cy="110.6" r="2.98"/><path class="fp" d="M201.03,95.89h6.15c.58,0,1.05,.47,1.05,1.05v7.2h-8.25v-7.2c0-.58,.47-1.05,1.05-1.05Z"/><path class="fu" d="M212.69,104.12h8.25v10.01c0,.47-.38,.85-.85,.85h-6.56c-.47,0-.85-.38-.85-.85v-10.01h0Z"/><circle cx="216.78" cy="110.6" r="2.98"/><path class="fp" d="M213.75,95.89h6.15c.58,0,1.05,.47,1.05,1.05v7.2h-8.25v-7.2c0-.58,.47-1.05,1.05-1.05Z"/><path class="fu" d="M224.89,104.12h8.25v10.01c0,.47-.38,.85-.85,.85h-6.56c-.47,0-.85-.38-.85-.85v-10.01h0Z"/><circle cx="228.98" cy="110.6" r="2.98"/><path class="fp" d="M225.94,95.89h6.15c.58,0,1.05,.47,1.05,1.05v7.2h-8.25v-7.2c0-.58,.47-1.05,1.05-1.05Z"/><path class="fu" d="M237.61,104.12h8.25v10.01c0,.47-.38,.85-.85,.85h-6.56c-.47,0-.85-.38-.85-.85v-10.01h0Z"/><circle cx="241.7" cy="110.6" r="2.98"/><path class="fp" d="M238.66,95.89h6.15c.58,0,1.05,.47,1.05,1.05v7.2h-8.25v-7.2c0-.58,.47-1.05,1.05-1.05Z"/><path class="fu" d="M150.99,200.93h6.56c.47,0,.85,.38,.85,.85v10.01h-8.25v-10.01c0-.47,.38-.85,.85-.85Z"/><circle cx="154.24" cy="205.3" r="2.98"/><path class="fp" d="M150.15,211.76h8.25v7.2c0,.58-.47,1.05-1.05,1.05h-6.15c-.58,0-1.05-.47-1.05-1.05v-7.2h0Z"/><path class="fu" d="M163.71,200.93h6.56c.47,0,.85,.38,.85,.85v10.01h-8.25v-10.01c0-.47,.38-.85,.85-.85Z"/><circle cx="166.96" cy="205.3" r="2.98"/><path class="fp" d="M162.87,211.76h8.25v7.2c0,.58-.47,1.05-1.05,1.05h-6.15c-.58,0-1.05-.47-1.05-1.05v-7.2h0Z"/><path class="fu" d="M175.9,200.93h6.56c.47,0,.85,.38,.85,.85v10.01h-8.25v-10.01c0-.47,.38-.85,.85-.85Z"/><circle cx="179.15" cy="205.3" r="2.98"/><path class="fp" d="M175.06,211.76h8.25v7.2c0,.58-.47,1.05-1.05,1.05h-6.15c-.58,0-1.05-.47-1.05-1.05v-7.2h0Z"/><path class="fu" d="M188.62,200.93h6.56c.47,0,.85,.38,.85,.85v10.01h-8.25v-10.01c0-.47,.38-.85,.85-.85Z"/><circle cx="191.87" cy="205.3" r="2.98"/><path class="fp" d="M187.78,211.76h8.25v7.2c0,.58-.47,1.05-1.05,1.05h-6.15c-.58,0-1.05-.47-1.05-1.05v-7.2h0Z"/><path class="fu" d="M201.33,200.93h6.56c.47,0,.85,.38,.85,.85v10.01h-8.25v-10.01c0-.47,.38-.85,.85-.85Z"/><circle cx="204.57" cy="205.3" r="2.98"/><path class="fp" d="M200.48,211.76h8.25v7.2c0,.58-.47,1.05-1.05,1.05h-6.15c-.58,0-1.05-.47-1.05-1.05v-7.2h0Z"/><path class="fu" d="M214.05,200.93h6.56c.47,0,.85,.38,.85,.85v10.01h-8.25v-10.01c0-.47,.38-.85,.85-.85Z"/><circle cx="217.29" cy="205.3" r="2.98"/><path class="fp" d="M213.2,211.76h8.25v7.2c0,.58-.47,1.05-1.05,1.05h-6.15c-.58,0-1.05-.47-1.05-1.05v-7.2h0Z"/><path class="fu" d="M226.24,200.93h6.56c.47,0,.85,.38,.85,.85v10.01h-8.25v-10.01c0-.47,.38-.85,.85-.85Z"/><circle cx="229.48" cy="205.3" r="2.98"/><path class="fp" d="M225.39,211.76h8.25v7.2c0,.58-.47,1.05-1.05,1.05h-6.15c-.58,0-1.05-.47-1.05-1.05v-7.2h0Z"/><path class="fu" d="M238.96,200.93h6.56c.47,0,.85,.38,.85,.85v10.01h-8.25v-10.01c0-.47,.38-.85,.85-.85Z"/><circle cx="242.2" cy="205.3" r="2.98"/><path class="fp" d="M238.11,211.76h8.25v7.2c0,.58-.47,1.05-1.05,1.05h-6.15c-.58,0-1.05-.47-1.05-1.05v-7.2h0Z"/><path class="fu" d="M248.19,188.38h6.13c.47,0,.85,.38,.85,.85v7.4h-7.82v-7.4c0-.47,.38-.85,.85-.85Z" transform="translate(58.75 443.76) rotate(-90)"/><ellipse cx="250.45" cy="192.54" rx="2.27" ry="2.83"/><path class="fp" d="M254.58,189.37h7.82v5.22c0,.58-.47,1.05-1.05,1.05h-5.72c-.58,0-1.05-.47-1.05-1.05v-5.22h0Z" transform="translate(65.99 451) rotate(-90)"/><path class="fu" d="M248.19,174.53h6.13c.47,0,.85,.38,.85,.85v7.4h-7.82v-7.4c0-.47,.38-.85,.85-.85Z" transform="translate(72.6 429.91) rotate(-90)"/><ellipse cx="250.45" cy="178.69" rx="2.27" ry="2.83"/><path class="fp" d="M254.58,175.52h7.82v5.22c0,.58-.47,1.05-1.05,1.05h-5.72c-.58,0-1.05-.47-1.05-1.05v-5.22h0Z" transform="translate(79.84 437.15) rotate(-90)"/><path class="fu" d="M248.19,160.79h6.13c.47,0,.85,.38,.85,.85v7.4h-7.82v-7.4c0-.47,.38-.85,.85-.85Z" transform="translate(86.34 416.17) rotate(-90)"/><ellipse cx="250.45" cy="164.95" rx="2.27" ry="2.83"/><path class="fp" d="M254.58,161.78h7.82v5.22c0,.58-.47,1.05-1.05,1.05h-5.72c-.58,0-1.05-.47-1.05-1.05v-5.22h0Z" transform="translate(93.58 423.41) rotate(-90)"/><path class="fu" d="M248.19,147.16h6.13c.47,0,.85,.38,.85,.85v7.4h-7.82v-7.4c0-.47,.38-.85,.85-.85Z" transform="translate(99.97 402.54) rotate(-90)"/><ellipse cx="250.45" cy="151.32" rx="2.27" ry="2.83"/><path class="fp" d="M254.58,148.15h7.82v5.22c0,.58-.47,1.05-1.05,1.05h-5.72c-.58,0-1.05-.47-1.05-1.05v-5.22h0Z" transform="translate(107.21 409.78) rotate(-90)"/><path class="fu" d="M248.19,134.13h6.13c.47,0,.85,.38,.85,.85v7.4h-7.82v-7.4c0-.47,.38-.85,.85-.85Z" transform="translate(113 389.51) rotate(-90)"/><ellipse cx="250.45" cy="138.29" rx="2.27" ry="2.83"/><path class="fp" d="M254.58,135.12h7.82v5.22c0,.58-.47,1.05-1.05,1.05h-5.72c-.58,0-1.05-.47-1.05-1.05v-5.22h0Z" transform="translate(120.24 396.75) rotate(-90)"/><path class="fu" d="M248.19,119.47h6.13c.47,0,.85,.38,.85,.85v7.4h-7.82v-7.4c0-.47,.38-.85,.85-.85Z" transform="translate(127.66 374.85) rotate(-90)"/><ellipse cx="250.45" cy="123.63" rx="2.27" ry="2.83"/><path class="fp" d="M254.58,120.46h7.82v5.22c0,.58-.47,1.05-1.05,1.05h-5.72c-.58,0-1.05-.47-1.05-1.05v-5.22h0Z" transform="translate(134.9 382.09) rotate(-90)"/><path class="cy" d="M137.19,114.01l.03-7.68-.75,.75c2.93-.02,5.85-.05,8.78-.07l-.75-.75,.15,7.78c.02,.96,1.52,.97,1.5,0l-.15-7.78c0-.4-.34-.75-.75-.75-2.93,.02-5.85,.05-8.78,.07-.41,0-.75,.34-.75,.75l-.03,7.68c0,.97,1.5,.97,1.5,0h0Z"/><path class="cy" d="M144.84,118.01l-.12,7.94,.75-.75-7.97-.13-1.15-.02,.75,.75-.16-7.78c-.02-.96-1.52-.97-1.5,0l.16,7.78c0,.41,.34,.74,.75,.75l7.97,.13,1.15,.02c.41,0,.74-.35,.75-.75l.12-7.94c.01-.97-1.49-.97-1.5,0h0Z"/><g id="d"><rect class="fp" x="138.1" y="108.31" width="5.86" height="4.14"/><rect class="fp" x="138.09" y="120.24" width="5.86" height="4.14"/><rect class="cy" x="138.09" y="112.49" width="5.87" height="7.75"/></g><path class="fi" d="M240.91,116.99h-87.58c-2,0-3.63,1.62-3.63,3.62v75.14c0,1.42,1.15,2.57,2.57,2.57h89.7c1.42,0,2.57-1.15,2.57-2.57V120.61c0-2-1.63-3.62-3.63-3.62Zm-6.81,24.2c0,4.47-3.62,8.09-8.09,8.09h-32.35c-4.46,0-8.08-3.62-8.08-8.09v-7.94c0-4.46,3.62-8.08,8.08-8.08h32.35c4.47,0,8.09,3.62,8.09,8.08v7.94Z"/><text id="e" class="dq" transform="translate(187.74 158.72) scale(1.1 1)"><tspan x="0" y="0">ESP8266MOD</tspan></text><text id="f" class="dg" transform="translate(189.38 176.32) scale(1.28 1)"><tspan x="0" y="0">ISM 2.4GHZ</tspan><tspan x="0" y="8.24">PA +25dBm</tspan><tspan x="0" y="16.48">802.11b/g/n</tspan></text><text id="g" class="dk" transform="translate(156.8 157.85) scale(1.12 1)"><tspan x="0" y="0">MODEL</tspan><tspan x="0" y="8.14">VENDOR</tspan></text><g id="h" class="ev"><text id="i" class="dn" transform="translate(154.24 194.08) scale(1.14 1)"><tspan x="0" y="0">F</tspan></text><g id="j"><path class="de" d="M184.95,186.82c-.93,3.08-3.25,5.42-7.44,5.42-5.68,0-8.68-4.44-8.68-9.92s2.94-10.03,8.71-10.03c4.27,0,6.79,2.33,7.44,5.58h-1.53c-.9-2.53-2.57-4.19-5.99-4.19-4.92,0-6.98,4.42-6.98,8.61s2.04,8.55,7.1,8.55c3.22,0,4.86-1.64,5.85-4.03h1.53Z"/></g><g id="k"><path class="de" d="M181.3,184.9c-.52,1.76-1.81,3.09-4.14,3.09-3.17,0-4.83-2.53-4.83-5.65s1.64-5.72,4.85-5.72c2.38,0,3.78,1.33,4.14,3.18h-.85c-.5-1.44-1.43-2.39-3.34-2.39-2.74,0-3.89,2.52-3.89,4.91s1.13,4.88,3.95,4.88c1.8,0,2.71-.93,3.26-2.3h.85Z"/></g></g><g id="l"><path class="fi" d="M233.02,133.28v8.59c0,3.5-2.84,6.34-6.34,6.34h-8.55s-13.97,.36-10.87-.68c3.93-1.31,4.17-6.88,4.17-8.25v-6c0-3.5,2.84-6.34,6.34-6.34h8.91c3.5,0,6.34,2.84,6.34,6.34Z"/><path class="dr" d="M225.95,125.17h-32.35c-4.46,0-8.08,3.62-8.08,8.08v7.94c0,4.47,3.62,8.09,8.08,8.09h32.35c4.47,0,8.09-3.62,8.09-8.09v-7.94c0-4.46-3.62-8.08-8.09-8.08Zm7.07,16.7c0,3.5-2.84,6.34-6.34,6.34h-8.55s-13.97,.36-10.87-.68c3.93-1.31,4.17-6.88,4.17-8.25v-6c0-3.5,2.84-6.34,6.34-6.34h8.91c3.5,0,6.34,2.84,6.34,6.34v8.59Z"/><text id="m" class="dy" transform="translate(189.08 142.64) scale(1.25 1)"><tspan x="0" y="0">Wi</tspan></text><text id="n" class="dt" transform="translate(214.57 143.66) scale(1.27 1)"><tspan x="0" y="0">Fi</tspan></text></g><g id="o" class="ev"><circle class="dw" cx="167.5" cy="136.27" r="10.99"/><path class="dv" d="M177.53,131.76s-3.75-.7-3.52,4.92c.08,1.9,.07,2.99,3.08,4.97"/><path class="dv" d="M174.99,128.31s-4.73-1.13-4.44,8.01c.1,3.09,.09,4.86,3.88,8.08"/><path class="dv" d="M171.45,126.72s-4.73-1.35-4.44,9.52c.1,3.67,.09,5.78,3.88,9.6"/><path class="dv" d="M167.5,125.9s-4.73-1.46-4.44,10.33c.1,3.98,.09,6.27,3.88,10.43"/><path class="dv" d="M164.21,126.41s-4.73-1.46-4.44,10.3c.1,3.97,.09,6.25,3.88,10.39"/></g></g><g id="p"><path class="fp" d="M268.65,106.81h4.63c.49,0,.89,.4,.89,.89v3.63h-6.4v-3.63c0-.49,.4-.89,.89-.89Z"/><path class="fp" d="M267.76,119.82h6.4v3.63c0,.49-.4,.89-.89,.89h-4.62c-.49,0-.89-.4-.89-.89v-3.63h0Z"/><rect class="cy" x="267.75" y="111.36" width="6.41" height="8.46"/><path class="cy" d="M276.35,126.07h-10.56l.75,.75v-22.56l-.75,.75h10.56l-.75-.75v22.56c0,.97,1.5,.97,1.5,0v-22.56c0-.41-.34-.75-.75-.75h-10.56c-.41,0-.75,.34-.75,.75v22.56c0,.41,.34,.75,.75,.75h10.56c.97,0,.97-1.5,0-1.5Z"/></g><g id="q"><path class="fp" d="M346.46,165.61h4.63c.49,0,.89,.4,.89,.89v3.63h-6.4v-3.63c0-.49,.4-.89,.89-.89Z" transform="translate(516.64 -180.9) rotate(90)"/><path class="fp" d="M332.56,165.61h6.4v3.63c0,.49-.4,.89-.89,.89h-4.62c-.49,0-.89-.4-.89-.89v-3.63h0Z" transform="translate(503.62 -167.89) rotate(90)"/><rect class="cy" x="339.04" y="163.64" width="6.41" height="8.46" transform="translate(510.11 -174.38) rotate(90)"/><path class="cy" d="M332.33,173.34v-11.11l-.75,.75h21.27l-.75-.75v11.11l.75-.75h-21.27c-.97,0-.97,1.5,0,1.5h21.27c.41,0,.75-.34,.75-.75v-11.11c0-.41-.34-.75-.75-.75h-21.27c-.41,0-.75,.34-.75,.75v11.11c0,.97,1.5,.97,1.5,0Z"/></g><g id="r"><path class="fp" d="M346.41,209.1h4.63c.49,0,.89,.4,.89,.89v3.63h-6.4v-3.63c0-.49,.4-.89,.89-.89Z" transform="translate(560.09 -137.36) rotate(90)"/><path class="fp" d="M332.51,209.1h6.4v3.63c0,.49-.4,.89-.89,.89h-4.62c-.49,0-.89-.4-.89-.89v-3.63h0Z" transform="translate(547.07 -124.35) rotate(90)"/><rect class="cy" x="338.99" y="207.13" width="6.41" height="8.46" transform="translate(553.56 -130.84) rotate(90)"/><path class="cy" d="M332.51,216.77v-11.11l-.75,.75h21.27l-.75-.75v11.11l.75-.75h-21.27c-.97,0-.97,1.5,0,1.5h21.27c.41,0,.75-.34,.75-.75v-11.11c0-.41-.34-.75-.75-.75h-21.27c-.41,0-.75,.34-.75,.75v11.11c0,.97,1.5,.97,1.5,0Z"/></g><g id="s"><path class="fp" d="M276.56,180.42h4.63c.49,0,.89,.4,.89,.89v2.96h-6.4v-2.96c0-.49,.4-.89,.89-.89Z" transform="translate(461.21 -96.53) rotate(90)"/><path class="fp" d="M264.6,180.41h6.4v2.95c0,.49-.4,.89-.89,.89h-4.62c-.49,0-.89-.4-.89-.89v-2.95h0Z" transform="translate(450.14 -85.47) rotate(90)"/><rect class="fj" x="270.09" y="177.51" width="6.41" height="9.66" transform="translate(455.63 -90.96) rotate(90)"/><path class="cy" d="M263.57,187.88v-11.11l-.75,.75h21.27l-.75-.75v11.11l.75-.75h-21.27c-.97,0-.97,1.5,0,1.5h21.27c.41,0,.75-.34,.75-.75v-11.11c0-.41-.34-.75-.75-.75h-21.27c-.41,0-.75,.34-.75,.75v11.11c0,.97,1.5,.97,1.5,0Z"/></g><g id="t"><path class="fp" d="M275.34,201.31h4.63c.49,0,.89,.4,.89,.89v2.96h-6.4v-2.96c0-.49,.4-.89,.89-.89Z" transform="translate(480.89 -74.42) rotate(90)"/><path class="fp" d="M263.39,201.31h6.4v2.95c0,.49-.4,.89-.89,.89h-4.62c-.49,0-.89-.4-.89-.89v-2.95h0Z" transform="translate(469.82 -63.36) rotate(90)"/><rect class="fj" x="268.87" y="198.4" width="6.41" height="9.66" transform="translate(475.31 -68.85) rotate(90)"/><path class="cy" d="M262.47,208.78v-11.11l-.75,.75h21.27l-.75-.75v11.11l.75-.75h-21.27c-.97,0-.97,1.5,0,1.5h21.27c.41,0,.75-.34,.75-.75v-11.11c0-.41-.34-.75-.75-.75h-21.27c-.41,0-.75,.34-.75,.75v11.11c0,.97,1.5,.97,1.5,0Z"/></g><g id="u"><path class="fp" d="M407.17,121.33h4.63c.49,0,.89,.4,.89,.89v2.96h-6.4v-2.96c0-.49,.4-.89,.89-.89Z"/><path class="fp" d="M406.27,132.4h6.4v2.95c0,.49-.4,.89-.89,.89h-4.62c-.49,0-.89-.4-.89-.89v-2.95h0Z"/><rect class="fj" x="406.27" y="124.01" width="6.41" height="9.66"/><path class="cy" d="M414.79,139.15h-10.56l.75,.75v-22.56l-.75,.75h10.56l-.75-.75v22.56c0,.97,1.5,.97,1.5,0v-22.56c0-.41-.34-.75-.75-.75h-10.56c-.41,0-.75,.34-.75,.75v22.56c0,.41,.34,.75,.75,.75h10.56c.97,0,.97-1.5,0-1.5Z"/></g><g id="v"><path class="fp" d="M420.4,121.37h4.63c.49,0,.89,.4,.89,.89v2.96h-6.4v-2.96c0-.49,.4-.89,.89-.89Z"/><path class="fp" d="M419.51,132.44h6.4v2.95c0,.49-.4,.89-.89,.89h-4.62c-.49,0-.89-.4-.89-.89v-2.95h0Z"/><rect class="fj" x="419.51" y="124.04" width="6.41" height="9.66"/><path class="cy" d="M427.93,139.15h-10.56l.75,.75v-22.56l-.75,.75h10.56l-.75-.75v22.56c0,.97,1.5,.97,1.5,0v-22.56c0-.41-.34-.75-.75-.75h-10.56c-.41,0-.75,.34-.75,.75v22.56c0,.41,.34,.75,.75,.75h10.56c.97,0,.97-1.5,0-1.5Z"/></g><g id="w"><path class="fp" d="M140.03,225.45h4.63c.49,0,.89,.4,.89,.89v3.95h-6.4v-3.95c0-.49,.4-.89,.89-.89Z"/><path class="fp" d="M139.14,239.37h6.4v3.94c0,.49-.4,.89-.89,.89h-4.62c-.49,0-.89-.4-.89-.89v-3.94h0Z"/><rect x="139.13" y="228.81" width="6.41" height="12.14"/><text id="x" class="df" transform="translate(143.79 239.47) rotate(-90) scale(1.28 1)"><tspan x="0" y="0">224</tspan></text><path class="cy" d="M148.06,245.08h-11.11l.75,.75v-23.57l-.75,.75h11.11l-.75-.75v23.57c0,.97,1.5,.97,1.5,0v-23.57c0-.41-.34-.75-.75-.75h-11.11c-.41,0-.75,.34-.75,.75v23.57c0,.41,.34,.75,.75,.75h11.11c.97,0,.97-1.5,0-1.5Z"/></g><g id="y"><path class="fp" d="M155.17,225.26h4.63c.49,0,.89,.4,.89,.89v3.95h-6.4v-3.95c0-.49,.4-.89,.89-.89Z"/><path class="fp" d="M154.28,239.17h6.4v3.94c0,.49-.4,.89-.89,.89h-4.62c-.49,0-.89-.4-.89-.89v-3.94h0Z"/><rect x="154.27" y="228.62" width="6.41" height="12.14"/><text id="a`" class="df" transform="translate(158.94 238.54) rotate(-90) scale(1.28 1)"><tspan x="0" y="0">010</tspan></text><path class="cy" d="M162.91,245.08h-11.11l.75,.75v-23.57l-.75,.75h11.11l-.75-.75v23.57c0,.97,1.5,.97,1.5,0v-23.57c0-.41-.34-.75-.75-.75h-11.11c-.41,0-.75,.34-.75,.75v23.57c0,.41,.34,.75,.75,.75h11.11c.97,0,.97-1.5,0-1.5Z"/></g><g id="aa"><path class="fp" d="M296.48,173.34h8.11c.49,0,.89,.4,.89,.89v5.9h-9.88v-5.9c0-.49,.4-.89,.89-.89Z" transform="translate(123.81 477.27) rotate(-90)"/><path class="fp" d="M315.14,173.35h9.88v5.9c0,.49-.4,.89-.89,.89h-8.1c-.49,0-.89-.4-.89-.89v-5.9h0Z" transform="translate(143.34 496.82) rotate(-90)"/><rect x="305.48" y="167.85" width="9.9" height="17.78" transform="translate(133.68 487.17) rotate(-90)"/><text id="ab" class="da" transform="translate(316.52 174.35) rotate(-180) scale(1.16 1)"><tspan x="0" y="0">C106</tspan></text><rect class="cy" x="313.3" y="175.66" width="9.9" height="2.15" transform="translate(141.51 494.98) rotate(-90)"/></g><g id="ac"><path class="fp" d="M282.9,199.09h15.31c.49,0,.89,.4,.89,.89v6.69h-17.08v-6.69c0-.49,.4-.89,.89-.89Z" transform="translate(87.67 493.43) rotate(-90)"/><path class="fp" d="M303.82,199.1h17.08v6.68c0,.49-.4,.89-.89,.89h-15.3c-.49,0-.89-.4-.89-.89v-6.68h0Z" transform="translate(109.47 515.25) rotate(-90)"/><rect x="293.03" y="192.97" width="17.11" height="19.85" transform="translate(98.7 504.48) rotate(-90)"/><text id="ad" class="cx" transform="translate(306.75 204.29) rotate(-180) scale(1.26 1)"><tspan class="fd"><tspan x="0" y="0">106</tspan></tspan><tspan class="fc" x="0" y="8.01"> </tspan><tspan class="fd" x=".57" y="8.01">6V</tspan></text><rect class="cy" x="302.01" y="201.93" width="17.11" height="1.9" transform="translate(107.69 513.44) rotate(-90)"/></g><g id="ae"><path class="fp" d="M406.27,229.12h3.31c.49,0,.89,.4,.89,.89v4.56h-5.08v-4.56c0-.49,.4-.89,.89-.89Z"/><path class="fp" d="M405.39,246.71h5.08v4.48c0,.49-.4,.89-.89,.89h-3.3c-.49,0-.89-.4-.89-.89v-4.48h0Z"/><rect x="404.15" y="234.56" width="7.56" height="12.14"/><text id="af" class="di" transform="translate(406.28 237.83) rotate(90) scale(1.08 1)"><tspan x="0" y="0">SL</tspan></text></g><g id="ag"><path class="fp" d="M421.3,246.64h3.31c.49,0,.89,.4,.89,.89v4.56h-5.08v-4.56c0-.49,.4-.89,.89-.89Z" transform="translate(845.91 498.72) rotate(-180)"/><path class="fp" d="M420.42,229.12h5.08v4.48c0,.49-.4,.89-.89,.89h-3.3c-.49,0-.89-.4-.89-.89v-4.48h0Z" transform="translate(845.91 463.6) rotate(-180)"/><rect x="419.18" y="234.49" width="7.56" height="12.14" transform="translate(845.91 481.13) rotate(-180)"/><text id="ah" class="di" transform="translate(424.61 243.36) rotate(-90) scale(1.08 1)"><tspan x="0" y="0">SL</tspan></text></g><g id="ai"><rect class="fp" x="267.49" y="145.57" width="9.06" height="3.72" rx="1.22" ry="1.22" transform="translate(544.05 294.85) rotate(-180)"/><rect class="fp" x="267.56" y="151.11" width="9.06" height="3.72" rx="1.22" ry="1.22" transform="translate(544.18 305.93) rotate(-180)"/><path class="fp" d="M269.12,156.65h5.83c.95,0,1.72,.77,1.72,1.72v2.07c0,.46-.37,.84-.84,.84h-7.6c-.46,0-.84-.37-.84-.84v-2.07c0-.95,.77-1.72,1.72-1.72Z" transform="translate(544.08 317.93) rotate(-180)"/><path class="fp" d="M268.19,139.42h7.7c.43,0,.78,.35,.78,.78v2c0,.92-.75,1.68-1.68,1.68h-5.92c-.92,0-1.68-.75-1.68-1.68v-2c0-.43,.35-.78,.78-.78Z" transform="translate(544.09 283.3) rotate(-180)"/><rect x="269.15" y="140.17" width="5.8" height="20.35" rx=".99" ry=".99" transform="translate(544.1 300.69) rotate(-180)"/><text id="aj" class="db" transform="translate(270.21 144.4) rotate(90) scale(1.19 1)"><tspan x="0" y="0" xml:space="preserve"> 103</tspan></text></g><g id="ak"><rect class="fp" x="337.51" y="135.08" width="9.06" height="3.72" rx="1.22" ry="1.22" transform="translate(684.07 273.88) rotate(-180)"/><rect class="fp" x="337.57" y="140.62" width="9.06" height="3.72" rx="1.22" ry="1.22" transform="translate(684.21 284.96) rotate(-180)"/><path class="fp" d="M339.14,146.16h5.83c.95,0,1.72,.77,1.72,1.72v2.07c0,.46-.37,.84-.84,.84h-7.6c-.46,0-.84-.37-.84-.84v-2.07c0-.95,.77-1.72,1.72-1.72Z" transform="translate(684.11 296.95) rotate(-180)"/><path class="fp" d="M338.21,128.93h7.7c.43,0,.78,.35,.78,.78v2c0,.92-.75,1.68-1.68,1.68h-5.92c-.92,0-1.68-.75-1.68-1.68v-2c0-.43,.35-.78,.78-.78Z" transform="translate(684.12 262.33) rotate(-180)"/><rect x="339.16" y="129.68" width="5.8" height="20.35" rx=".99" ry=".99" transform="translate(684.13 279.71) rotate(-180)"/><text id="al" class="db" transform="translate(340.22 134.73) rotate(90) scale(1.19 1)"><tspan x="0" y="0">471</tspan></text></g><g id="am"><rect class="fp" x="361.47" y="112.67" width="9.06" height="3.72" rx="1.22" ry="1.22"/><rect class="fp" x="361.4" y="107.14" width="9.06" height="3.72" rx="1.22" ry="1.22"/><path class="fp" d="M363.07,100.68h5.83c.95,0,1.72,.77,1.72,1.72v2.07c0,.46-.37,.84-.84,.84h-7.6c-.46,0-.84-.37-.84-.84v-2.07c0-.95,.77-1.72,1.72-1.72Z"/><path class="fp" d="M362.13,118.08h7.7c.43,0,.78,.35,.78,.78v2c0,.92-.75,1.68-1.68,1.68h-5.92c-.92,0-1.68-.75-1.68-1.68v-2c0-.43,.35-.78,.78-.78Z"/><rect x="363.07" y="101.44" width="5.8" height="20.35" rx=".99" ry=".99"/><text id="an" class="db" transform="translate(367.81 117.57) rotate(-90) scale(1.19 1)"><tspan x="0" y="0" xml:space="preserve"> 103</tspan></text></g><g id="ao"><path class="fp" d="M330.69,180.8h9.9c.78,0,1.42,.64,1.42,1.42v4.69c0,.78-.64,1.42-1.42,1.42h-11.32v-6.11c0-.78,.64-1.42,1.42-1.42Z" transform="translate(151.08 520.2) rotate(-90)"/><path class="fp" d="M343.52,195.07h7.66c.78,0,1.42,.64,1.42,1.42v4.69c0,.78-.64,1.42-1.42,1.42h-9.08v-6.11c0-.78,.64-1.42,1.42-1.42Z" transform="translate(546.19 -148.52) rotate(90)"/><path class="fp" d="M340.74,181.09h11.44c.78,0,1.42,.64,1.42,1.42v4.69c0,.78-.64,1.42-1.42,1.42h-10.02c-.78,0-1.42-.64-1.42-1.42v-6.11h0Z" transform="translate(162.31 532.03) rotate(-90)"/><path class="fp" d="M330.46,194.98h9.08c.78,0,1.42,.64,1.42,1.42v4.69c0,.78-.64,1.42-1.42,1.42h-7.66c-.78,0-1.42-.64-1.42-1.42v-6.11h0Z" transform="translate(534.45 -136.97) rotate(90)"/><rect x="330.82" y="184.82" width="21.36" height="13.61" rx="1.54" ry="1.54" transform="translate(149.87 533.13) rotate(-90)"/><text id="ap" class="do" transform="translate(342.62 184.48) rotate(90) scale(1.05 1)"><tspan x="0" y="0">16.756</tspan><tspan x="0" y="6.09" xml:space="preserve">    343</tspan></text></g><g id="aq"><rect class="fp" x="347.96" y="113.91" width="8.46" height="7.53" rx="1.09" ry="1.09" transform="translate(234.51 469.86) rotate(-90)"/><rect class="fp" x="347.78" y="100.83" width="7.24" height="8.23" rx="1.09" ry="1.09" transform="translate(246.46 456.35) rotate(-90)"/><rect class="fp" x="333.72" y="106.71" width="8.08" height="8.99" rx="1.09" ry="1.09" transform="translate(226.56 448.96) rotate(-90)"/><rect x="335.77" y="107.25" width="19.27" height="8.56" transform="translate(233.88 456.94) rotate(-90)"/><text id="ar" class="d`" transform="translate(347.99 116.86) rotate(-90) scale(.93 1)"><tspan x="0" y="0">J3Y</tspan></text></g><g id="as"><rect class="fp" x="377.6" y="101.58" width="8.57" height="7.53" rx="1.09" ry="1.09" transform="translate(487.23 -276.54) rotate(90)"/><rect class="fp" x="378.84" y="114.22" width="7.66" height="8.23" rx="1.09" ry="1.09" transform="translate(501.01 -264.33) rotate(90)"/><rect class="fp" x="392.27" y="107.38" width="8.08" height="8.99" rx="1.09" ry="1.09" transform="translate(508.19 -284.43) rotate(90)"/><rect x="379.03" y="107.26" width="19.27" height="8.56" transform="translate(500.21 -277.12) rotate(90)"/><text id="at" class="d`" transform="translate(386.08 106.21) rotate(90) scale(.93 1)"><tspan x="0" y="0">J3Y</tspan></text></g><g id="au"><rect class="fp" x="294.81" y="102.82" width="21.34" height="16.47"/><rect x="285.89" y="119.3" width="39.21" height="21.18"/><text id="av" class="dj" transform="translate(289.74 127.58) scale(1.13 1)"><tspan x="0" y="0">AMS1117</tspan></text><path class="fp" d="M302.07,140.52h6.86v12.64c0,.54-.44,.99-.99,.99h-4.89c-.54,0-.99-.44-.99-.99v-12.64h0Z"/><text id="aw" class="dp" transform="translate(287.66 137.77) scale(1.13 1)"><tspan x="0" y="0">3.3 H839MK</tspan></text><path class="fp" d="M316.76,140.52h6.86v12.64c0,.54-.44,.99-.99,.99h-4.89c-.54,0-.99-.44-.99-.99v-12.64h0Z"/><path class="fp" d="M287.72,140.52h6.86v12.64c0,.54-.44,.99-.99,.99h-4.89c-.54,0-.99-.44-.99-.99v-12.64h0Z"/></g><g id="ax"><rect x="374.93" y="145.77" width="24.36" height="66.14"/><text id="ay" class="dh" transform="translate(380.54 155.29) rotate(90) scale(.5 1)"><tspan x="0" y="0">WCH</tspan></text><path class="fp" d="M400.99,143.49h5.43v9.69c0,.54-.44,.99-.99,.99h-3.46c-.54,0-.99-.44-.99-.99v-9.69h0Z" transform="translate(254.88 552.53) rotate(-90)"/><text id="b`" class="dc" transform="translate(390.23 174.65) rotate(90) scale(1.06 1)"><tspan x="0" y="0">CH340C</tspan><tspan x="0" y="10.61">20565820</tspan></text><circle class="ec" cx="380.53" cy="150.63" r="2.97"/><path class="fp" d="M400.99,151.88h5.43v9.69c0,.54-.44,.99-.99,.99h-3.46c-.54,0-.99-.44-.99-.99v-9.69h0Z" transform="translate(246.49 560.93) rotate(-90)"/><path class="fp" d="M400.99,160.55h5.43v9.69c0,.54-.44,.99-.99,.99h-3.46c-.54,0-.99-.44-.99-.99v-9.69h0Z" transform="translate(237.82 569.59) rotate(-90)"/><path class="fp" d="M400.99,168.94h5.43v9.69c0,.54-.44,.99-.99,.99h-3.46c-.54,0-.99-.44-.99-.99v-9.69h0Z" transform="translate(229.43 577.99) rotate(-90)"/><path class="fp" d="M400.99,177.08h5.43v9.69c0,.54-.44,.99-.99,.99h-3.46c-.54,0-.99-.44-.99-.99v-9.69h0Z" transform="translate(221.29 586.12) rotate(-90)"/><path class="fp" d="M400.99,185.47h5.43v9.69c0,.54-.44,.99-.99,.99h-3.46c-.54,0-.99-.44-.99-.99v-9.69h0Z" transform="translate(212.9 594.52) rotate(-90)"/><path class="fp" d="M400.99,194.14h5.43v9.69c0,.54-.44,.99-.99,.99h-3.46c-.54,0-.99-.44-.99-.99v-9.69h0Z" transform="translate(204.23 603.18) rotate(-90)"/><path class="fp" d="M400.99,202.53h5.43v9.69c0,.54-.44,.99-.99,.99h-3.46c-.54,0-.99-.44-.99-.99v-9.69h0Z" transform="translate(195.84 611.58) rotate(-90)"/><path class="fp" d="M368.69,143.73h3.46c.54,0,.99,.44,.99,.99v9.69h-5.43v-9.69c0-.54,.44-.99,.99-.99Z" transform="translate(221.36 519.49) rotate(-90)"/><path class="fp" d="M368.69,152.12h3.46c.54,0,.99,.44,.99,.99v9.69h-5.43v-9.69c0-.54,.44-.99,.99-.99Z" transform="translate(212.96 527.88) rotate(-90)"/><path class="fp" d="M368.69,160.78h3.46c.54,0,.99,.44,.99,.99v9.69h-5.43v-9.69c0-.54,.44-.99,.99-.99Z" transform="translate(204.3 536.54) rotate(-90)"/><path class="fp" d="M368.69,169.18h3.46c.54,0,.99,.44,.99,.99v9.69h-5.43v-9.69c0-.54,.44-.99,.99-.99Z" transform="translate(195.9 544.94) rotate(-90)"/><path class="fp" d="M368.69,177.32h3.46c.54,0,.99,.44,.99,.99v9.69h-5.43v-9.69c0-.54,.44-.99,.99-.99Z" transform="translate(187.77 553.08) rotate(-90)"/><path class="fp" d="M368.69,185.71h3.46c.54,0,.99,.44,.99,.99v9.69h-5.43v-9.69c0-.54,.44-.99,.99-.99Z" transform="translate(179.37 561.47) rotate(-90)"/><path class="fp" d="M368.69,194.37h3.46c.54,0,.99,.44,.99,.99v9.69h-5.43v-9.69c0-.54,.44-.99,.99-.99Z" transform="translate(170.71 570.13) rotate(-90)"/><path class="fp" d="M368.69,202.77h3.46c.54,0,.99,.44,.99,.99v9.69h-5.43v-9.69c0-.54,.44-.99,.99-.99Z" transform="translate(162.31 578.53) rotate(-90)"/><line class="du" x1="387.6" y1="174.89" x2="387.6" y2="206.51"/></g><g id="ba"><ellipse class="eu" cx="171.78" cy="64.22" rx="6.4" ry="6.92"/><ellipse class="et" cx="171.78" cy="64.22" rx="3.22" ry="3.49"/><ellipse class="fe" cx="187.32" cy="64.22" rx="6.4" ry="6.92"/><ellipse class="et" cx="187.32" cy="64.22" rx="3.22" ry="3.49"/><ellipse class="en" cx="203.39" cy="64.22" rx="6.4" ry="6.92"/><ellipse class="et" cx="203.39" cy="64.22" rx="3.22" ry="3.49"/><ellipse class="cv" cx="219.29" cy="64.22" rx="6.4" ry="6.92"/><ellipse class="et" cx="219.29" cy="64.22" rx="3.22" ry="3.49"/><ellipse class="ey" cx="235.13" cy="64.22" rx="6.4" ry="6.92"/><ellipse class="et" cx="235.13" cy="64.22" rx="3.22" ry="3.49"/><ellipse class="ep" cx="250.68" cy="64.22" rx="6.4" ry="6.92"/><ellipse class="et" cx="250.68" cy="64.22" rx="3.22" ry="3.49"/><ellipse class="eh" cx="266.74" cy="64.22" rx="6.4" ry="6.92"/><ellipse class="et" cx="266.74" cy="64.22" rx="3.22" ry="3.49"/><ellipse class="eq" cx="282.64" cy="64.22" rx="6.4" ry="6.92"/><ellipse class="et" cx="282.64" cy="64.22" rx="3.22" ry="3.49"/><ellipse class="em" cx="298.96" cy="64.22" rx="6.4" ry="6.92"/><ellipse class="et" cx="298.96" cy="64.22" rx="3.22" ry="3.49"/><ellipse class="eb" cx="314.51" cy="64.22" rx="6.4" ry="6.92"/><ellipse class="et" cx="314.51" cy="64.22" rx="3.22" ry="3.49"/><ellipse class="ed" cx="330.57" cy="64.22" rx="6.4" ry="6.92"/><ellipse class="et" cx="330.57" cy="64.22" rx="3.22" ry="3.49"/><ellipse class="ek" cx="346.47" cy="64.22" rx="6.4" ry="6.92"/><ellipse class="et" cx="346.47" cy="64.22" rx="3.22" ry="3.49"/><ellipse class="fl" cx="362.31" cy="64.22" rx="6.4" ry="6.92"/><ellipse class="et" cx="362.31" cy="64.22" rx="3.22" ry="3.49"/><ellipse class="es" cx="377.86" cy="64.22" rx="6.4" ry="6.92"/><ellipse class="et" cx="377.86" cy="64.22" rx="3.22" ry="3.49"/><ellipse class="ef" cx="393.92" cy="64.22" rx="6.4" ry="6.92"/><ellipse class="et" cx="393.92" cy="64.22" rx="3.22" ry="3.49"/><text id="bq" class="cx" transform="translate(175.24 88.57) rotate(-90) scale(.96 1)"><tspan class="ej"><tspan x="0" y="0">D0</tspan></tspan><tspan class="ej"><tspan x="0" y="15.92">D1</tspan></tspan><tspan class="ej"><tspan x="0" y="31.84">D2</tspan></tspan><tspan class="ej"><tspan x="0" y="47.76">D3</tspan></tspan><tspan class="ej"><tspan x="0" y="63.67">D4</tspan></tspan><tspan class="ej"><tspan x="0" y="79.59">3V</tspan></tspan><tspan class="ej"><tspan x="0" y="95.51" xml:space="preserve">  G</tspan></tspan><tspan class="ej"><tspan x="0" y="111.43">D5</tspan></tspan><tspan class="ej"><tspan x="0" y="127.35">D6</tspan></tspan><tspan class="ej"><tspan x="0" y="143.27">D7</tspan></tspan><tspan class="ej"><tspan x="0" y="159.19">D8</tspan></tspan><tspan class="ej"><tspan x="0" y="175.11">RX</tspan></tspan><tspan class="ej"><tspan x="0" y="191.02">TX</tspan></tspan><tspan class="ej" x="0" y="206.94" xml:space="preserve">  </tspan><tspan class="el" x="6.11" y="206.94"> </tspan><tspan class="ei" x="8.1" y="206.94">G</tspan><tspan class="ej"><tspan x="0" y="222.86">3V</tspan></tspan></text></g><g id="br"><ellipse class="fs" cx="170.76" cy="251.98" rx="6.4" ry="6.92"/><ellipse class="et" cx="170.76" cy="251.98" rx="3.22" ry="3.49"/><ellipse class="fq" cx="186.31" cy="251.98" rx="6.4" ry="6.92"/><ellipse class="et" cx="186.31" cy="251.98" rx="3.22" ry="3.49"/><ellipse class="cw" cx="202.37" cy="251.98" rx="6.4" ry="6.92"/><ellipse class="et" cx="202.37" cy="251.98" rx="3.22" ry="3.49"/><ellipse class="ff" cx="218.27" cy="251.98" rx="6.4" ry="6.92"/><ellipse class="et" cx="218.27" cy="251.98" rx="3.22" ry="3.49"/><ellipse class="fh" cx="234.11" cy="251.98" rx="6.4" ry="6.92"/><ellipse class="et" cx="234.11" cy="251.98" rx="3.22" ry="3.49"/><ellipse class="fk" cx="249.66" cy="251.98" rx="6.4" ry="6.92"/><ellipse class="et" cx="249.66" cy="251.98" rx="3.22" ry="3.49"/><ellipse class="fg" cx="265.72" cy="251.98" rx="6.4" ry="6.92"/><ellipse class="et" cx="265.72" cy="251.98" rx="3.22" ry="3.49"/><ellipse class="fa" cx="281.62" cy="251.98" rx="6.4" ry="6.92"/><ellipse class="et" cx="281.62" cy="251.98" rx="3.22" ry="3.49"/><ellipse class="ea" cx="297.94" cy="251.98" rx="6.4" ry="6.92"/><ellipse class="et" cx="297.94" cy="251.98" rx="3.22" ry="3.49"/><ellipse class="ew" cx="313.49" cy="251.98" rx="6.4" ry="6.92"/><ellipse class="et" cx="313.49" cy="251.98" rx="3.22" ry="3.49"/><ellipse class="fn" cx="329.55" cy="251.98" rx="6.4" ry="6.92"/><ellipse class="et" cx="329.55" cy="251.98" rx="3.22" ry="3.49"/><ellipse class="ft" cx="345.45" cy="251.98" rx="6.4" ry="6.92"/><ellipse class="et" cx="345.45" cy="251.98" rx="3.22" ry="3.49"/><ellipse class="eo" cx="361.29" cy="251.98" rx="6.4" ry="6.92"/><ellipse class="et" cx="361.29" cy="251.98" rx="3.22" ry="3.49"/><ellipse class="fb" cx="376.84" cy="251.98" rx="6.4" ry="6.92"/><ellipse class="et" cx="376.84" cy="251.98" rx="3.22" ry="3.49"/><ellipse class="ex" cx="392.9" cy="251.98" rx="6.4" ry="6.92"/><ellipse class="et" cx="392.9" cy="251.98" rx="3.22" ry="3.49"/><text id="ch" class="dd" transform="translate(175.24 238.56) rotate(-90) scale(.96 1)"><tspan x="0" y="0">A0</tspan><tspan x="0" y="15.92" xml:space="preserve">  G</tspan><tspan x="0" y="31.84">VV</tspan><tspan x="0" y="47.76">S3</tspan><tspan x="0" y="63.67">S2</tspan><tspan x="0" y="79.59">S1</tspan><tspan x="0" y="95.51">SC</tspan><tspan x="0" y="111.43">S0</tspan><tspan x="0" y="127.35">SK</tspan><tspan x="0" y="143.27" xml:space="preserve">  G</tspan><tspan x="0" y="159.19">3V</tspan><tspan x="0" y="175.11">EN</tspan><tspan x="0" y="191.02">RST</tspan><tspan x="0" y="206.94" xml:space="preserve">  G</tspan><tspan x="0" y="222.86">VIN</tspan></text></g><g id="ci"><path class="fm" d="M118.87,61.31c6.11,0,11.06,4.95,11.06,11.06s-4.95,11.06-11.06,11.06-11.06-4.95-11.06-11.06,4.95-11.06,11.06-11.06m0-3c-7.75,0-14.06,6.31-14.06,14.06s6.31,14.06,14.06,14.06,14.06-6.31,14.06-14.06-6.31-14.06-14.06-14.06h0Z"/><path class="eg" d="M444.49,61.21c6.11,0,11.06,4.96,11.06,11.07s-4.95,11.06-11.06,11.06-11.07-4.95-11.07-11.06,4.96-11.07,11.07-11.07m0-3c-7.76,0-14.07,6.31-14.07,14.07s6.31,14.06,14.07,14.06,14.06-6.31,14.06-14.06-6.31-14.07-14.06-14.07h0Z"/><path class="fo" d="M443.35,230.55c6.11,0,11.06,4.96,11.06,11.07s-4.95,11.06-11.06,11.06-11.07-4.95-11.07-11.06,4.96-11.07,11.07-11.07m0-3c-7.76,0-14.07,6.31-14.07,14.07s6.31,14.06,14.07,14.06,14.06-6.31,14.06-14.06-6.31-14.07-14.06-14.07h0Z"/><path class="ee" d="M120.24,230.82c6.11,0,11.06,4.96,11.06,11.07s-4.95,11.06-11.06,11.06-11.07-4.95-11.07-11.06,4.96-11.07,11.07-11.07m0-3c-7.76,0-14.07,6.31-14.07,14.07s6.31,14.06,14.07,14.06,14.06-6.31,14.06-14.06-6.31-14.07-14.06-14.07h0Z"/></g><g id="cn"><text id="co" class="ds" transform="translate(425.45 191.85) rotate(-90) scale(1.31 1)"><tspan x="0" y="0">LOL1n</tspan></text><text id="cp" class="dm" transform="translate(429.76 196.92) scale(1.03 1)"><tspan x="0" y="0">RST</tspan></text><text id="cq" class="dl" transform="translate(429.59 121.34) scale(1.09 1)"><tspan x="0" y="0">FLASH</tspan></text><text id="cr" class="ds" transform="translate(144.51 98.32) rotate(-90) scale(.99 1)"><tspan x="0" y="0" xml:space="preserve">Ver   0.1</tspan></text></g><g id="cs"><path class="cy" d="M453.31,222.06h-27.1l.75,.75v-22.56l-.75,.75h27.1l-.75-.75v22.56c0,.97,1.5,.97,1.5,0v-22.56c0-.41-.34-.75-.75-.75h-27.1c-.41,0-.75,.34-.75,.75v22.56c0,.41,.34,.75,.75,.75h27.1c.97,0,.97-1.5,0-1.5Z"/><path class="fp" d="M420.1,208.6h8.7c.49,0,.89,.4,.89,.89v6.11h-10.47v-6.11c0-.49,.4-.89,.89-.89Z" transform="translate(212.36 636.55) rotate(-90)"/><rect class="fr" x="427.9" y="202.07" width="23.69" height="19.2" rx="2.23" ry="2.23"/><ellipse cx="439.7" cy="211.67" rx="6.16" ry="6.58"/><path class="fp" d="M450.74,208.41h8.7c.49,0,.89,.4,.89,.89v6.11h-10.47v-6.11c0-.49,.4-.89,.89-.89Z" transform="translate(667 -243.18) rotate(90)"/></g><g id="ct"><path class="cy" d="M454.25,112.05h-27.1l.75,.75v-22.56l-.75,.75h27.1l-.75-.75v22.56c0,.97,1.5,.97,1.5,0v-22.56c0-.41-.34-.75-.75-.75h-27.1c-.41,0-.75,.34-.75,.75v22.56c0,.41,.34,.75,.75,.75h27.1c.97,0,.97-1.5,0-1.5Z"/><path class="fp" d="M421.04,98.58h8.7c.49,0,.89,.4,.89,.89v6.11h-10.47v-6.11c0-.49,.4-.89,.89-.89Z" transform="translate(323.32 527.47) rotate(-90)"/><rect class="fr" x="428.85" y="92.05" width="23.69" height="19.2" rx="2.23" ry="2.23"/><ellipse cx="440.64" cy="101.65" rx="6.16" ry="6.58"/><path class="fp" d="M451.68,98.4h8.7c.49,0,.89,.4,.89,.89v6.11h-10.47v-6.11c0-.49,.4-.89,.89-.89Z" transform="translate(557.93 -354.14) rotate(90)"/></g><g id="cu"><rect x="438.13" y="135.95" width="28.3" height="49.41" rx="1.88" ry="1.88"/><path class="fp" d="M430.98,174.16h9.11c.54,0,.99,.44,.99,.99v4.29h-11.08v-4.29c0-.54,.44-.99,.99-.99Z" transform="translate(258.73 612.34) rotate(-90)"/><path class="fp" d="M434.38,147.22h.5c.54,0,.99,.44,.99,.99v5.94h-2.47v-5.94c0-.54,.44-.99,.99-.99Z" transform="translate(283.95 585.31) rotate(-90)"/><path class="e`" d="M440.16,136.07c-.47,0-.86,.38-.86,.85,0,.88-.01,1.75-.02,2.63,0,.8-.01,1.59-.02,2.39,0,.99,.8,1.8,1.8,1.8h2.57c1,0,1.82,.81,1.82,1.8v1.67c0,.99-.81,1.8-1.82,1.8h-2.94c-.87,0-1.57,.69-1.57,1.55v3.28c0,.86,.7,1.55,1.57,1.55h4.05c.48,0,.86,.38,.86,.85v8.1c0,.47-.39,.85-.86,.85h-4.64c-.48,0-.86,.38-.86,.85v4.94c0,.47,.39,.85,.86,.85h4.08c.48,0,.86,.38,.86,.85v3.21c0,.47-.39,.85-.86,.85h-5.22c-.48,0-.86,.38-.86,.85v6.68c0,.47,.39,.85,.86,.85h33.05c1.52,0,2.76-1.22,2.76-2.73v-43.66c0-1.51-1.24-2.73-2.76-2.73l-31.85,.03Zm15.79,6.79h9.91v6.02h-2.99v-2.25h-6.92v-3.77Zm9.97,35.72h-9.9v-3.76h6.92v-2.25h2.98v6.01Z"/><path class="fp" d="M449.42,185.53h9.67c.54,0,.99,.44,.99,.99v2.43h-11.64v-2.43c0-.54,.44-.99,.99-.99Z" transform="translate(908.5 374.48) rotate(180)"/><path class="fp" d="M449.29,132.17h9.67c.54,0,.99,.44,.99,.99v2.43h-11.64v-2.43c0-.54,.44-.99,.99-.99Z"/><path class="fp" d="M434.38,151.61h.5c.54,0,.99,.44,.99,.99v5.94h-2.47v-5.94c0-.54,.44-.99,.99-.99Z" transform="translate(279.55 589.71) rotate(-90)"/><path class="fp" d="M434.38,156.02h.5c.54,0,.99,.44,.99,.99v5.94h-2.47v-5.94c0-.54,.44-.99,.99-.99Z" transform="translate(275.14 594.12) rotate(-90)"/><path class="fp" d="M434.38,160.07h.5c.54,0,.99,.44,.99,.99v5.94h-2.47v-5.94c0-.54,.44-.99,.99-.99Z" transform="translate(271.1 598.17) rotate(-90)"/><path class="fp" d="M434.38,164.46h.5c.54,0,.99,.44,.99,.99v5.94h-2.47v-5.94c0-.54,.44-.99,.99-.99Z" transform="translate(266.7 602.56) rotate(-90)"/><path class="fp" d="M431.19,139.16h8.54c.54,0,.99,.44,.99,.99v4.29h-10.51v-4.29c0-.54,.44-.99,.99-.99Z" transform="translate(293.66 577.26) rotate(-90)"/></g></g></svg>